<svg preserveAspectRatio="none" overflow="visible" style="display: block;" width="21.5003" height="21.5003" viewBox="0 0 21.5003 21.5003" fill="none" xmlns="http://www.w3.org/2000/svg">
<g id="Group">
<path id="Vector" d="M0.750148 8.75015C1.53015 4.93415 4.42015 1.88015 8.15615 0.840148C8.47015 0.753148 8.62615 0.709148 8.71115 0.802148C8.79615 0.896148 8.73315 1.05015 8.60915 1.36015L7.75015 3.25015M12.7501 0.750148C16.5661 1.53015 19.6201 4.42015 20.6601 8.15615C20.7471 8.47015 20.7911 8.62615 20.6981 8.71115C20.6041 8.79615 20.4501 8.73315 20.1401 8.60915L18.2501 7.75015M20.7501 12.7501C19.9701 16.5661 17.0801 19.6201 13.3441 20.6601C13.0301 20.7471 12.8741 20.7911 12.7891 20.6981C12.7041 20.6041 12.7671 20.4501 12.8911 20.1401L13.7501 18.2501M8.75015 20.7501C4.93415 19.9701 1.88015 17.0801 0.840148 13.3441C0.753148 13.0301 0.709148 12.8741 0.802148 12.7891C0.896148 12.7041 1.05015 12.7671 1.36015 12.8911L3.25015 13.7501" stroke="white" stroke-width="1.5" stroke-linecap="round"/>
<path id="Vector_2" d="M10.7501 9.84915C9.43715 10.7491 7.84915 12.5291 7.25015 15.2501M8.12515 12.8541C6.05315 8.06015 10.2331 6.44315 13.4141 6.26315C13.7981 6.24115 13.9901 6.23015 14.1271 6.37015C14.2651 6.51015 14.2571 6.71015 14.2411 7.10815C14.1101 10.4241 12.7881 14.9861 8.12515 12.8541Z" stroke="white" stroke-width="1.5" stroke-linecap="round" stroke-linejoin="round"/>
</g>
</svg>
